<svg width="16" height="11" viewBox="0 0 16 11" fill="none" xmlns="http://www.w3.org/2000/svg">
<path d="M6.70302 10.045L0.330019 3.19897C0.117382 2.96577 -0.000488281 2.66156 -0.000488281 2.34597C-0.000488281 2.03038 0.117382 1.72617 0.330019 1.49297L1.39002 0.359971C1.4901 0.248173 1.61263 0.158739 1.74962 0.0975103C1.88661 0.0362815 2.03497 0.0046339 2.18502 0.0046339C2.33507 0.0046339 2.48343 0.0362815 2.62042 0.0975103C2.75741 0.158739 2.87994 0.248173 2.98002 0.359971L7.50302 5.20797L12.023 0.354971C12.1231 0.243172 12.2456 0.153739 12.3826 0.0925102C12.5196 0.0312813 12.668 -0.000366211 12.818 -0.000366211C12.9681 -0.000366211 13.1164 0.0312813 13.2534 0.0925102C13.3904 0.153739 13.5129 0.243172 13.613 0.354971L14.673 1.49297C14.8857 1.72617 15.0035 2.03038 15.0035 2.34597C15.0035 2.66156 14.8857 2.96577 14.673 3.19897L8.29202 10.045C8.19239 10.1566 8.07029 10.246 7.93372 10.3072C7.79714 10.3684 7.64917 10.4 7.49952 10.4C7.34986 10.4 7.2019 10.3684 7.06532 10.3072C6.92874 10.246 6.80664 10.1566 6.70702 10.045H6.70302Z" fill="white"/>
</svg>
