<svg  viewBox="0 0 425 790" fill="none" xmlns="http://www.w3.org/2000/svg">
<path d="M166.723 323V299.539H174.393C176.939 299.539 178.851 300.065 180.129 301.118C181.418 302.171 182.063 303.729 182.063 305.791C182.063 306.887 181.751 307.859 181.128 308.708C180.505 309.545 179.657 310.195 178.583 310.657C179.85 311.012 180.849 311.688 181.58 312.688C182.321 313.676 182.691 314.857 182.691 316.232C182.691 318.338 182.009 319.992 180.645 321.195C179.281 322.398 177.353 323 174.86 323H166.723ZM169.817 312.027V320.47H174.925C176.364 320.47 177.498 320.1 178.325 319.358C179.163 318.606 179.582 317.575 179.582 316.265C179.582 313.439 178.045 312.027 174.973 312.027H169.817ZM169.817 309.545H174.49C175.843 309.545 176.923 309.207 177.729 308.53C178.545 307.854 178.953 306.935 178.953 305.775C178.953 304.486 178.577 303.551 177.825 302.971C177.073 302.38 175.929 302.085 174.393 302.085H169.817V309.545ZM197.58 323C197.408 322.656 197.269 322.044 197.161 321.163C195.775 322.603 194.121 323.322 192.198 323.322C190.479 323.322 189.067 322.839 187.96 321.872C186.865 320.895 186.317 319.659 186.317 318.166C186.317 316.351 187.004 314.943 188.379 313.944C189.765 312.935 191.709 312.43 194.212 312.43H197.113V311.06C197.113 310.018 196.801 309.191 196.178 308.579C195.555 307.956 194.637 307.644 193.423 307.644C192.359 307.644 191.468 307.913 190.748 308.45C190.028 308.987 189.668 309.637 189.668 310.399H186.671C186.671 309.529 186.978 308.691 187.59 307.886C188.213 307.069 189.051 306.425 190.104 305.952C191.167 305.479 192.333 305.243 193.6 305.243C195.609 305.243 197.183 305.748 198.321 306.758C199.46 307.757 200.051 309.137 200.094 310.899V318.923C200.094 320.524 200.298 321.797 200.706 322.742V323H197.58ZM192.633 320.728C193.568 320.728 194.454 320.486 195.292 320.003C196.13 319.52 196.737 318.891 197.113 318.118V314.541H194.776C191.124 314.541 189.298 315.609 189.298 317.747C189.298 318.682 189.609 319.412 190.232 319.938C190.855 320.465 191.656 320.728 192.633 320.728ZM214.918 318.375C214.918 317.57 214.612 316.947 214 316.506C213.398 316.055 212.34 315.668 210.825 315.346C209.321 315.024 208.124 314.637 207.232 314.186C206.351 313.735 205.696 313.198 205.266 312.575C204.847 311.952 204.638 311.21 204.638 310.351C204.638 308.922 205.239 307.714 206.442 306.726C207.656 305.737 209.203 305.243 211.083 305.243C213.06 305.243 214.66 305.753 215.885 306.774C217.12 307.794 217.738 309.1 217.738 310.689H214.741C214.741 309.873 214.392 309.169 213.693 308.579C213.006 307.988 212.136 307.692 211.083 307.692C209.998 307.692 209.149 307.929 208.537 308.401C207.925 308.874 207.619 309.492 207.619 310.254C207.619 310.974 207.903 311.517 208.473 311.882C209.042 312.247 210.068 312.596 211.55 312.929C213.043 313.262 214.252 313.66 215.176 314.122C216.1 314.583 216.782 315.142 217.222 315.797C217.673 316.442 217.899 317.231 217.899 318.166C217.899 319.724 217.276 320.975 216.03 321.92C214.784 322.855 213.167 323.322 211.18 323.322C209.783 323.322 208.548 323.075 207.474 322.581C206.399 322.087 205.556 321.399 204.944 320.519C204.342 319.627 204.042 318.666 204.042 317.634H207.022C207.076 318.633 207.474 319.428 208.215 320.019C208.967 320.599 209.955 320.889 211.18 320.889C212.308 320.889 213.21 320.664 213.887 320.212C214.574 319.75 214.918 319.138 214.918 318.375ZM225.021 323H222.04V305.565H225.021V323ZM221.798 300.941C221.798 300.458 221.943 300.049 222.233 299.716C222.534 299.383 222.975 299.217 223.555 299.217C224.135 299.217 224.575 299.383 224.876 299.716C225.177 300.049 225.327 300.458 225.327 300.941C225.327 301.424 225.177 301.827 224.876 302.149C224.575 302.472 224.135 302.633 223.555 302.633C222.975 302.633 222.534 302.472 222.233 302.149C221.943 301.827 221.798 301.424 221.798 300.941ZM236.8 320.889C237.863 320.889 238.792 320.567 239.587 319.922C240.382 319.278 240.823 318.472 240.909 317.505H243.729C243.675 318.504 243.331 319.455 242.697 320.357C242.063 321.26 241.215 321.979 240.151 322.517C239.099 323.054 237.981 323.322 236.8 323.322C234.426 323.322 232.535 322.533 231.128 320.954C229.731 319.364 229.033 317.194 229.033 314.444V313.944C229.033 312.247 229.345 310.738 229.968 309.417C230.591 308.095 231.482 307.069 232.643 306.339C233.813 305.608 235.194 305.243 236.784 305.243C238.739 305.243 240.361 305.829 241.65 307C242.95 308.17 243.643 309.69 243.729 311.56H240.909C240.823 310.432 240.393 309.508 239.62 308.788C238.857 308.058 237.912 307.692 236.784 307.692C235.269 307.692 234.093 308.24 233.255 309.336C232.428 310.421 232.014 311.995 232.014 314.057V314.621C232.014 316.63 232.428 318.177 233.255 319.262C234.082 320.347 235.264 320.889 236.8 320.889ZM259.052 323H255.958V299.539H259.052V323ZM267.077 305.565L267.173 307.757C268.505 306.081 270.246 305.243 272.394 305.243C276.079 305.243 277.937 307.322 277.969 311.479V323H274.988V311.463C274.978 310.206 274.688 309.277 274.118 308.675C273.56 308.074 272.684 307.773 271.492 307.773C270.525 307.773 269.676 308.031 268.946 308.546C268.215 309.062 267.646 309.739 267.238 310.577V323H264.257V305.565H267.077ZM283.931 323V307.87H281.176V305.565H283.931V303.777C283.931 301.908 284.431 300.463 285.43 299.442C286.429 298.422 287.841 297.912 289.667 297.912C290.355 297.912 291.037 298.003 291.714 298.186L291.553 300.603C291.048 300.506 290.511 300.458 289.941 300.458C288.975 300.458 288.228 300.742 287.702 301.312C287.175 301.87 286.912 302.676 286.912 303.729V305.565H290.634V307.87H286.912V323H283.931ZM293.148 314.122C293.148 312.414 293.481 310.877 294.147 309.513C294.824 308.149 295.758 307.096 296.951 306.355C298.154 305.614 299.523 305.243 301.06 305.243C303.434 305.243 305.351 306.065 306.812 307.708C308.284 309.352 309.02 311.538 309.02 314.267V314.476C309.02 316.173 308.692 317.699 308.037 319.052C307.392 320.395 306.463 321.442 305.249 322.194C304.046 322.946 302.66 323.322 301.092 323.322C298.729 323.322 296.811 322.5 295.339 320.857C293.878 319.213 293.148 317.038 293.148 314.331V314.122ZM296.145 314.476C296.145 316.41 296.591 317.962 297.482 319.133C298.385 320.304 299.588 320.889 301.092 320.889C302.606 320.889 303.81 320.298 304.701 319.117C305.593 317.924 306.039 316.259 306.039 314.122C306.039 312.209 305.582 310.663 304.669 309.481C303.767 308.289 302.563 307.692 301.06 307.692C299.588 307.692 298.401 308.278 297.499 309.449C296.596 310.62 296.145 312.295 296.145 314.476ZM321.185 308.24C320.734 308.165 320.245 308.127 319.719 308.127C317.764 308.127 316.437 308.96 315.739 310.625V323H312.758V305.565H315.658L315.707 307.58C316.684 306.022 318.07 305.243 319.864 305.243C320.444 305.243 320.884 305.318 321.185 305.469V308.24ZM326.744 305.565L326.825 307.499C328.103 305.995 329.827 305.243 331.997 305.243C334.436 305.243 336.095 306.178 336.976 308.047C337.556 307.209 338.308 306.532 339.232 306.017C340.167 305.501 341.268 305.243 342.535 305.243C346.359 305.243 348.304 307.268 348.368 311.318V323H345.387V311.495C345.387 310.249 345.103 309.32 344.533 308.708C343.964 308.084 343.008 307.773 341.665 307.773C340.559 307.773 339.64 308.106 338.91 308.772C338.179 309.427 337.755 310.313 337.637 311.431V323H334.64V311.576C334.64 309.041 333.399 307.773 330.917 307.773C328.962 307.773 327.625 308.605 326.905 310.271V323H323.924V305.565H326.744ZM363.644 323C363.472 322.656 363.332 322.044 363.225 321.163C361.839 322.603 360.185 323.322 358.262 323.322C356.543 323.322 355.13 322.839 354.024 321.872C352.928 320.895 352.38 319.659 352.38 318.166C352.38 316.351 353.068 314.943 354.443 313.944C355.829 312.935 357.773 312.43 360.276 312.43H363.176V311.06C363.176 310.018 362.865 309.191 362.242 308.579C361.619 307.956 360.7 307.644 359.486 307.644C358.423 307.644 357.531 307.913 356.812 308.45C356.092 308.987 355.732 309.637 355.732 310.399H352.735C352.735 309.529 353.041 308.691 353.653 307.886C354.276 307.069 355.114 306.425 356.167 305.952C357.23 305.479 358.396 305.243 359.664 305.243C361.672 305.243 363.246 305.748 364.385 306.758C365.523 307.757 366.114 309.137 366.157 310.899V318.923C366.157 320.524 366.361 321.797 366.77 322.742V323H363.644ZM358.697 320.728C359.631 320.728 360.518 320.486 361.355 320.003C362.193 319.52 362.8 318.891 363.176 318.118V314.541H360.84C357.188 314.541 355.361 315.609 355.361 317.747C355.361 318.682 355.673 319.412 356.296 319.938C356.919 320.465 357.719 320.728 358.697 320.728ZM374.875 301.344V305.565H378.129V307.87H374.875V318.682C374.875 319.38 375.02 319.906 375.31 320.261C375.6 320.604 376.094 320.776 376.792 320.776C377.136 320.776 377.608 320.712 378.21 320.583V323C377.426 323.215 376.663 323.322 375.922 323.322C374.59 323.322 373.585 322.919 372.909 322.114C372.232 321.308 371.894 320.164 371.894 318.682V307.87H368.719V305.565H371.894V301.344H374.875ZM384.865 323H381.884V305.565H384.865V323ZM381.642 300.941C381.642 300.458 381.787 300.049 382.077 299.716C382.378 299.383 382.818 299.217 383.398 299.217C383.979 299.217 384.419 299.383 384.72 299.716C385.021 300.049 385.171 300.458 385.171 300.941C385.171 301.424 385.021 301.827 384.72 302.149C384.419 302.472 383.979 302.633 383.398 302.633C382.818 302.633 382.378 302.472 382.077 302.149C381.787 301.827 381.642 301.424 381.642 300.941ZM388.861 314.122C388.861 312.414 389.194 310.877 389.86 309.513C390.537 308.149 391.471 307.096 392.664 306.355C393.867 305.614 395.236 305.243 396.772 305.243C399.146 305.243 401.064 306.065 402.525 307.708C403.997 309.352 404.732 311.538 404.732 314.267V314.476C404.732 316.173 404.405 317.699 403.75 319.052C403.105 320.395 402.176 321.442 400.962 322.194C399.759 322.946 398.373 323.322 396.805 323.322C394.441 323.322 392.524 322.5 391.052 320.857C389.591 319.213 388.861 317.038 388.861 314.331V314.122ZM391.858 314.476C391.858 316.41 392.304 317.962 393.195 319.133C394.098 320.304 395.301 320.889 396.805 320.889C398.319 320.889 399.522 320.298 400.414 319.117C401.306 317.924 401.751 316.259 401.751 314.122C401.751 312.209 401.295 310.663 400.382 309.481C399.479 308.289 398.276 307.692 396.772 307.692C395.301 307.692 394.114 308.278 393.211 309.449C392.309 310.62 391.858 312.295 391.858 314.476ZM411.291 305.565L411.387 307.757C412.719 306.081 414.459 305.243 416.608 305.243C420.292 305.243 422.151 307.322 422.183 311.479V323H419.202V311.463C419.191 310.206 418.901 309.277 418.332 308.675C417.773 308.074 416.898 307.773 415.706 307.773C414.739 307.773 413.89 308.031 413.16 308.546C412.429 309.062 411.86 309.739 411.452 310.577V323H408.471V305.565H411.291Z" fill="white"/>
<path d="M220.678 435.877H210.849L208.642 442H205.451L214.41 418.539H217.117L226.092 442H222.918L220.678 435.877ZM211.784 433.331H219.76L215.764 422.358L211.784 433.331ZM243.543 433.476C243.543 436.14 242.931 438.283 241.706 439.905C240.481 441.517 238.838 442.322 236.775 442.322C234.573 442.322 232.871 441.543 231.667 439.986L231.522 442H228.783V417.25H231.764V426.483C232.967 424.99 234.627 424.243 236.743 424.243C238.859 424.243 240.519 425.043 241.722 426.644C242.936 428.245 243.543 430.436 243.543 433.218V433.476ZM240.562 433.138C240.562 431.107 240.17 429.539 239.386 428.433C238.602 427.326 237.474 426.773 236.002 426.773C234.036 426.773 232.624 427.686 231.764 429.512V437.053C232.677 438.879 234.101 439.792 236.034 439.792C237.463 439.792 238.575 439.239 239.37 438.133C240.165 437.026 240.562 435.361 240.562 433.138ZM246.524 433.122C246.524 431.414 246.857 429.877 247.523 428.513C248.2 427.149 249.134 426.096 250.327 425.355C251.53 424.614 252.899 424.243 254.436 424.243C256.81 424.243 258.727 425.065 260.188 426.708C261.66 428.352 262.396 430.538 262.396 433.267V433.476C262.396 435.173 262.068 436.699 261.413 438.052C260.768 439.395 259.839 440.442 258.625 441.194C257.422 441.946 256.036 442.322 254.468 442.322C252.104 442.322 250.187 441.5 248.715 439.857C247.254 438.213 246.524 436.038 246.524 433.331V433.122ZM249.521 433.476C249.521 435.41 249.967 436.962 250.858 438.133C251.761 439.304 252.964 439.889 254.468 439.889C255.982 439.889 257.186 439.298 258.077 438.117C258.969 436.924 259.415 435.259 259.415 433.122C259.415 431.209 258.958 429.663 258.045 428.481C257.143 427.289 255.939 426.692 254.436 426.692C252.964 426.692 251.777 427.278 250.875 428.449C249.972 429.62 249.521 431.295 249.521 433.476ZM276.897 440.276C275.737 441.64 274.035 442.322 271.79 442.322C269.931 442.322 268.513 441.785 267.536 440.711C266.569 439.626 266.08 438.025 266.069 435.909V424.565H269.05V435.829C269.05 438.471 270.125 439.792 272.273 439.792C274.55 439.792 276.065 438.944 276.817 437.247V424.565H279.798V442H276.962L276.897 440.276ZM288.386 420.344V424.565H291.641V426.87H288.386V437.682C288.386 438.38 288.531 438.906 288.821 439.261C289.111 439.604 289.605 439.776 290.304 439.776C290.647 439.776 291.12 439.712 291.722 439.583V442C290.938 442.215 290.175 442.322 289.434 442.322C288.102 442.322 287.097 441.919 286.42 441.114C285.744 440.308 285.405 439.164 285.405 437.682V426.87H282.231V424.565H285.405V420.344H288.386ZM310.945 430.318L317.068 418.539H320.581L312.492 433.25V442H309.398V433.25L301.309 418.539H304.854L310.945 430.318ZM321.29 433.122C321.29 431.414 321.623 429.877 322.289 428.513C322.965 427.149 323.9 426.096 325.092 425.355C326.295 424.614 327.665 424.243 329.201 424.243C331.575 424.243 333.493 425.065 334.954 426.708C336.425 428.352 337.161 430.538 337.161 433.267V433.476C337.161 435.173 336.833 436.699 336.178 438.052C335.534 439.395 334.604 440.442 333.391 441.194C332.188 441.946 330.802 442.322 329.233 442.322C326.87 442.322 324.953 441.5 323.481 439.857C322.02 438.213 321.29 436.038 321.29 433.331V433.122ZM324.287 433.476C324.287 435.41 324.732 436.962 325.624 438.133C326.526 439.304 327.729 439.889 329.233 439.889C330.748 439.889 331.951 439.298 332.843 438.117C333.734 436.924 334.18 435.259 334.18 433.122C334.18 431.209 333.724 429.663 332.811 428.481C331.908 427.289 330.705 426.692 329.201 426.692C327.729 426.692 326.542 427.278 325.64 428.449C324.738 429.62 324.287 431.295 324.287 433.476ZM351.663 440.276C350.503 441.64 348.8 442.322 346.555 442.322C344.697 442.322 343.279 441.785 342.301 440.711C341.334 439.626 340.846 438.025 340.835 435.909V424.565H343.816V435.829C343.816 438.471 344.89 439.792 347.039 439.792C349.316 439.792 350.831 438.944 351.583 437.247V424.565H354.563V442H351.728L351.663 440.276Z" fill="black"/>
<path d="M235.636 550.542C232.982 549.78 231.049 548.845 229.835 547.739C228.632 546.622 228.03 545.247 228.03 543.614C228.03 541.766 228.766 540.241 230.238 539.038C231.72 537.824 233.643 537.217 236.006 537.217C237.618 537.217 239.052 537.528 240.309 538.151C241.576 538.774 242.554 539.634 243.241 540.729C243.939 541.825 244.289 543.023 244.289 544.323H241.179C241.179 542.905 240.728 541.793 239.825 540.987C238.923 540.171 237.65 539.763 236.006 539.763C234.481 539.763 233.289 540.101 232.429 540.778C231.581 541.444 231.156 542.373 231.156 543.565C231.156 544.521 231.559 545.333 232.365 545.999C233.181 546.654 234.562 547.255 236.506 547.803C238.461 548.351 239.986 548.958 241.082 549.624C242.188 550.279 243.005 551.047 243.531 551.928C244.068 552.809 244.337 553.846 244.337 555.038C244.337 556.939 243.596 558.465 242.113 559.614C240.631 560.753 238.649 561.322 236.167 561.322C234.556 561.322 233.052 561.016 231.656 560.404C230.259 559.781 229.18 558.932 228.417 557.858C227.665 556.784 227.289 555.564 227.289 554.2H230.399C230.399 555.618 230.92 556.741 231.962 557.568C233.015 558.384 234.417 558.792 236.167 558.792C237.8 558.792 239.052 558.459 239.922 557.793C240.792 557.127 241.227 556.22 241.227 555.07C241.227 553.921 240.824 553.035 240.019 552.412C239.213 551.778 237.752 551.155 235.636 550.542ZM247.06 552.122C247.06 550.414 247.393 548.877 248.059 547.513C248.736 546.149 249.67 545.096 250.863 544.355C252.066 543.614 253.436 543.243 254.972 543.243C257.346 543.243 259.263 544.065 260.724 545.708C262.196 547.352 262.932 549.538 262.932 552.267V552.476C262.932 554.173 262.604 555.699 261.949 557.052C261.304 558.395 260.375 559.442 259.161 560.194C257.958 560.946 256.572 561.322 255.004 561.322C252.641 561.322 250.723 560.5 249.251 558.857C247.791 557.213 247.06 555.038 247.06 552.331V552.122ZM250.057 552.476C250.057 554.41 250.503 555.962 251.395 557.133C252.297 558.304 253.5 558.889 255.004 558.889C256.519 558.889 257.722 558.298 258.613 557.117C259.505 555.924 259.951 554.259 259.951 552.122C259.951 550.209 259.494 548.663 258.581 547.481C257.679 546.289 256.476 545.692 254.972 545.692C253.5 545.692 252.313 546.278 251.411 547.449C250.508 548.62 250.057 550.295 250.057 552.476ZM273.663 558.889C274.727 558.889 275.656 558.567 276.451 557.922C277.246 557.278 277.686 556.472 277.772 555.505H280.592C280.538 556.504 280.194 557.455 279.561 558.357C278.927 559.26 278.078 559.979 277.015 560.517C275.962 561.054 274.845 561.322 273.663 561.322C271.289 561.322 269.398 560.533 267.991 558.954C266.595 557.364 265.896 555.194 265.896 552.444V551.944C265.896 550.247 266.208 548.738 266.831 547.417C267.454 546.095 268.346 545.069 269.506 544.339C270.677 543.608 272.057 543.243 273.647 543.243C275.602 543.243 277.224 543.829 278.513 545C279.813 546.17 280.506 547.69 280.592 549.56H277.772C277.686 548.432 277.256 547.508 276.483 546.788C275.72 546.058 274.775 545.692 273.647 545.692C272.132 545.692 270.956 546.24 270.118 547.336C269.291 548.421 268.877 549.995 268.877 552.057V552.621C268.877 554.63 269.291 556.177 270.118 557.262C270.945 558.347 272.127 558.889 273.663 558.889ZM287.182 561H284.201V543.565H287.182V561ZM283.959 538.941C283.959 538.458 284.104 538.049 284.395 537.716C284.695 537.383 285.136 537.217 285.716 537.217C286.296 537.217 286.736 537.383 287.037 537.716C287.338 538.049 287.488 538.458 287.488 538.941C287.488 539.424 287.338 539.827 287.037 540.149C286.736 540.472 286.296 540.633 285.716 540.633C285.136 540.633 284.695 540.472 284.395 540.149C284.104 539.827 283.959 539.424 283.959 538.941ZM302.731 561C302.56 560.656 302.42 560.044 302.312 559.163C300.927 560.603 299.272 561.322 297.35 561.322C295.631 561.322 294.218 560.839 293.112 559.872C292.016 558.895 291.468 557.659 291.468 556.166C291.468 554.351 292.156 552.943 293.531 551.944C294.917 550.935 296.861 550.43 299.364 550.43H302.264V549.06C302.264 548.018 301.953 547.191 301.33 546.579C300.707 545.956 299.788 545.644 298.574 545.644C297.511 545.644 296.619 545.913 295.899 546.45C295.18 546.987 294.82 547.637 294.82 548.399H291.823C291.823 547.529 292.129 546.691 292.741 545.886C293.364 545.069 294.202 544.425 295.255 543.952C296.318 543.479 297.484 543.243 298.751 543.243C300.76 543.243 302.334 543.748 303.473 544.758C304.611 545.757 305.202 547.137 305.245 548.899V556.923C305.245 558.524 305.449 559.797 305.857 560.742V561H302.731ZM297.785 558.728C298.719 558.728 299.605 558.486 300.443 558.003C301.281 557.52 301.888 556.891 302.264 556.118V552.541H299.928C296.275 552.541 294.449 553.609 294.449 555.747C294.449 556.682 294.761 557.412 295.384 557.938C296.007 558.465 296.807 558.728 297.785 558.728ZM313.157 561H310.176V536.25H313.157V561ZM328.094 556.375C328.094 555.57 327.788 554.947 327.175 554.506C326.574 554.055 325.516 553.668 324.001 553.346C322.497 553.024 321.299 552.637 320.408 552.186C319.527 551.735 318.872 551.198 318.442 550.575C318.023 549.952 317.813 549.21 317.813 548.351C317.813 546.922 318.415 545.714 319.618 544.726C320.832 543.737 322.379 543.243 324.259 543.243C326.235 543.243 327.836 543.753 329.061 544.774C330.296 545.794 330.914 547.1 330.914 548.689H327.917C327.917 547.873 327.567 547.169 326.869 546.579C326.182 545.988 325.312 545.692 324.259 545.692C323.174 545.692 322.325 545.929 321.713 546.401C321.101 546.874 320.794 547.492 320.794 548.254C320.794 548.974 321.079 549.517 321.648 549.882C322.218 550.247 323.244 550.596 324.726 550.929C326.219 551.262 327.428 551.66 328.352 552.122C329.275 552.583 329.958 553.142 330.398 553.797C330.849 554.442 331.075 555.231 331.075 556.166C331.075 557.724 330.452 558.975 329.206 559.92C327.959 560.855 326.343 561.322 324.355 561.322C322.959 561.322 321.724 561.075 320.649 560.581C319.575 560.087 318.732 559.399 318.12 558.519C317.518 557.627 317.217 556.666 317.217 555.634H320.198C320.252 556.633 320.649 557.428 321.391 558.019C322.143 558.599 323.131 558.889 324.355 558.889C325.483 558.889 326.386 558.664 327.062 558.212C327.75 557.75 328.094 557.138 328.094 556.375Z" fill="black"/>
<path d="M254 197H360C373.261 197 385.979 202.268 395.355 211.645C404.732 221.021 410 233.739 410 247V393H204V247C204 233.739 209.268 221.021 218.645 211.645C228.021 202.268 240.739 197 254 197V197Z" fill="#B1CCC9"/>
<path d="M352 262H266C260.477 262 256 266.477 256 272V353C256 358.523 260.477 363 266 363H352C357.523 363 362 358.523 362 353V272C362 266.477 357.523 262 352 262Z" fill="#0E314A"/>
<path d="M310 393H204V591H310V393Z" fill="#851A59"/>
<path d="M408 393H307V591H408V393Z" fill="#FFAA1D"/>
<path d="M204 393H0V589H204V393Z" fill="#ED7154"/>
<path d="M102 483L204 589H0L102 483Z" fill="#FFAA1D"/>
<path d="M121 468H83C80.7909 468 79 469.791 79 472V503C79 505.209 80.7909 507 83 507H121C123.209 507 125 505.209 125 503V472C125 469.791 123.209 468 121 468Z" fill="white"/>
<path d="M207 589H0V790H207V589Z" fill="#C31A37"/>
<path d="M407.086 590.203H204.566V788.883H407.086V590.203Z" fill="white"/>
<path d="M205.273 591.115C205.273 591.115 266.366 598.315 289.162 611.73C311.958 625.145 343.873 649.301 343.873 649.301L205.273 789.746V591.115Z" fill="#0C314A"/>
<path d="M405.76 789.747C405.76 789.747 405.26 732.423 378.603 693.2C351.946 653.977 343.532 649.849 343.532 649.849L206.054 789.749L405.76 789.747Z" fill="#851A5B"/>
<path d="M45.5 641C52.4036 641 58 635.404 58 628.5C58 621.596 52.4036 616 45.5 616C38.5964 616 33 621.596 33 628.5C33 635.404 38.5964 641 45.5 641Z" fill="white"/>
<path d="M45.5 704C52.4036 704 58 698.404 58 691.5C58 684.596 52.4036 679 45.5 679C38.5964 679 33 684.596 33 691.5C33 698.404 38.5964 704 45.5 704Z" fill="white"/>
<path d="M45.5 767C52.4036 767 58 761.404 58 754.5C58 747.596 52.4036 742 45.5 742C38.5964 742 33 747.596 33 754.5C33 761.404 38.5964 767 45.5 767Z" fill="white"/>
<path d="M102 642C109.18 642 115 636.18 115 629C115 621.82 109.18 616 102 616C94.8203 616 89 621.82 89 629C89 636.18 94.8203 642 102 642Z" fill="white"/>
<path d="M102 705C109.18 705 115 699.18 115 692C115 684.82 109.18 679 102 679C94.8203 679 89 684.82 89 692C89 699.18 94.8203 705 102 705Z" fill="white"/>
<path d="M102 768C109.18 768 115 762.18 115 755C115 747.82 109.18 742 102 742C94.8203 742 89 747.82 89 755C89 762.18 94.8203 768 102 768Z" fill="white"/>
<path d="M158.5 641C165.404 641 171 635.404 171 628.5C171 621.596 165.404 616 158.5 616C151.596 616 146 621.596 146 628.5C146 635.404 151.596 641 158.5 641Z" fill="white"/>
<path d="M158.5 704C165.404 704 171 698.404 171 691.5C171 684.596 165.404 679 158.5 679C151.596 679 146 684.596 146 691.5C146 698.404 151.596 704 158.5 704Z" fill="white"/>
<path d="M158.5 767C165.404 767 171 761.404 171 754.5C171 747.596 165.404 742 158.5 742C151.596 742 146 747.596 146 754.5C146 761.404 151.596 767 158.5 767Z" fill="white"/>
<path d="M166.723 126V102.539H174.393C176.939 102.539 178.851 103.065 180.129 104.118C181.418 105.171 182.063 106.729 182.063 108.791C182.063 109.887 181.751 110.859 181.128 111.708C180.505 112.545 179.657 113.195 178.583 113.657C179.85 114.012 180.849 114.688 181.58 115.688C182.321 116.676 182.691 117.857 182.691 119.232C182.691 121.338 182.009 122.992 180.645 124.195C179.281 125.398 177.353 126 174.86 126H166.723ZM169.817 115.027V123.47H174.925C176.364 123.47 177.498 123.1 178.325 122.358C179.163 121.606 179.582 120.575 179.582 119.265C179.582 116.439 178.045 115.027 174.973 115.027H169.817ZM169.817 112.545H174.49C175.843 112.545 176.923 112.207 177.729 111.53C178.545 110.854 178.953 109.935 178.953 108.775C178.953 107.486 178.577 106.551 177.825 105.971C177.073 105.38 175.929 105.085 174.393 105.085H169.817V112.545ZM197.58 126C197.408 125.656 197.269 125.044 197.161 124.163C195.775 125.603 194.121 126.322 192.198 126.322C190.479 126.322 189.067 125.839 187.96 124.872C186.865 123.895 186.317 122.659 186.317 121.166C186.317 119.351 187.004 117.943 188.379 116.944C189.765 115.935 191.709 115.43 194.212 115.43H197.113V114.06C197.113 113.018 196.801 112.191 196.178 111.579C195.555 110.956 194.637 110.644 193.423 110.644C192.359 110.644 191.468 110.913 190.748 111.45C190.028 111.987 189.668 112.637 189.668 113.399H186.671C186.671 112.529 186.978 111.691 187.59 110.886C188.213 110.069 189.051 109.425 190.104 108.952C191.167 108.479 192.333 108.243 193.6 108.243C195.609 108.243 197.183 108.748 198.321 109.758C199.46 110.757 200.051 112.137 200.094 113.899V121.923C200.094 123.524 200.298 124.797 200.706 125.742V126H197.58ZM192.633 123.728C193.568 123.728 194.454 123.486 195.292 123.003C196.13 122.52 196.737 121.891 197.113 121.118V117.541H194.776C191.124 117.541 189.298 118.609 189.298 120.747C189.298 121.682 189.609 122.412 190.232 122.938C190.855 123.465 191.656 123.728 192.633 123.728ZM214.918 121.375C214.918 120.57 214.612 119.947 214 119.506C213.398 119.055 212.34 118.668 210.825 118.346C209.321 118.024 208.124 117.637 207.232 117.186C206.351 116.735 205.696 116.198 205.266 115.575C204.847 114.952 204.638 114.21 204.638 113.351C204.638 111.922 205.239 110.714 206.442 109.726C207.656 108.737 209.203 108.243 211.083 108.243C213.06 108.243 214.66 108.753 215.885 109.774C217.12 110.794 217.738 112.1 217.738 113.689H214.741C214.741 112.873 214.392 112.169 213.693 111.579C213.006 110.988 212.136 110.692 211.083 110.692C209.998 110.692 209.149 110.929 208.537 111.401C207.925 111.874 207.619 112.492 207.619 113.254C207.619 113.974 207.903 114.517 208.473 114.882C209.042 115.247 210.068 115.596 211.55 115.929C213.043 116.262 214.252 116.66 215.176 117.122C216.1 117.583 216.782 118.142 217.222 118.797C217.673 119.442 217.899 120.231 217.899 121.166C217.899 122.724 217.276 123.975 216.03 124.92C214.784 125.855 213.167 126.322 211.18 126.322C209.783 126.322 208.548 126.075 207.474 125.581C206.399 125.087 205.556 124.399 204.944 123.519C204.342 122.627 204.042 121.666 204.042 120.634H207.022C207.076 121.633 207.474 122.428 208.215 123.019C208.967 123.599 209.955 123.889 211.18 123.889C212.308 123.889 213.21 123.664 213.887 123.212C214.574 122.75 214.918 122.138 214.918 121.375ZM225.021 126H222.04V108.565H225.021V126ZM221.798 103.941C221.798 103.458 221.943 103.049 222.233 102.716C222.534 102.383 222.975 102.217 223.555 102.217C224.135 102.217 224.575 102.383 224.876 102.716C225.177 103.049 225.327 103.458 225.327 103.941C225.327 104.424 225.177 104.827 224.876 105.149C224.575 105.472 224.135 105.633 223.555 105.633C222.975 105.633 222.534 105.472 222.233 105.149C221.943 104.827 221.798 104.424 221.798 103.941ZM236.8 123.889C237.863 123.889 238.792 123.567 239.587 122.922C240.382 122.278 240.823 121.472 240.909 120.505H243.729C243.675 121.504 243.331 122.455 242.697 123.357C242.063 124.26 241.215 124.979 240.151 125.517C239.099 126.054 237.981 126.322 236.8 126.322C234.426 126.322 232.535 125.533 231.128 123.954C229.731 122.364 229.033 120.194 229.033 117.444V116.944C229.033 115.247 229.345 113.738 229.968 112.417C230.591 111.095 231.482 110.069 232.643 109.339C233.813 108.608 235.194 108.243 236.784 108.243C238.739 108.243 240.361 108.829 241.65 110C242.95 111.17 243.643 112.69 243.729 114.56H240.909C240.823 113.432 240.393 112.508 239.62 111.788C238.857 111.058 237.912 110.692 236.784 110.692C235.269 110.692 234.093 111.24 233.255 112.336C232.428 113.421 232.014 114.995 232.014 117.057V117.621C232.014 119.63 232.428 121.177 233.255 122.262C234.082 123.347 235.264 123.889 236.8 123.889ZM259.052 126H255.958V102.539H259.052V126ZM267.077 108.565L267.173 110.757C268.505 109.081 270.246 108.243 272.394 108.243C276.079 108.243 277.937 110.322 277.969 114.479V126H274.988V114.463C274.978 113.206 274.688 112.277 274.118 111.675C273.56 111.074 272.684 110.773 271.492 110.773C270.525 110.773 269.676 111.031 268.946 111.546C268.215 112.062 267.646 112.739 267.238 113.577V126H264.257V108.565H267.077ZM283.931 126V110.87H281.176V108.565H283.931V106.777C283.931 104.908 284.431 103.463 285.43 102.442C286.429 101.422 287.841 100.912 289.667 100.912C290.355 100.912 291.037 101.003 291.714 101.186L291.553 103.603C291.048 103.506 290.511 103.458 289.941 103.458C288.975 103.458 288.228 103.742 287.702 104.312C287.175 104.87 286.912 105.676 286.912 106.729V108.565H290.634V110.87H286.912V126H283.931ZM293.148 117.122C293.148 115.414 293.481 113.877 294.147 112.513C294.824 111.149 295.758 110.096 296.951 109.355C298.154 108.614 299.523 108.243 301.06 108.243C303.434 108.243 305.351 109.065 306.812 110.708C308.284 112.352 309.02 114.538 309.02 117.267V117.476C309.02 119.173 308.692 120.699 308.037 122.052C307.392 123.395 306.463 124.442 305.249 125.194C304.046 125.946 302.66 126.322 301.092 126.322C298.729 126.322 296.811 125.5 295.339 123.857C293.878 122.213 293.148 120.038 293.148 117.331V117.122ZM296.145 117.476C296.145 119.41 296.591 120.962 297.482 122.133C298.385 123.304 299.588 123.889 301.092 123.889C302.606 123.889 303.81 123.298 304.701 122.117C305.593 120.924 306.039 119.259 306.039 117.122C306.039 115.209 305.582 113.663 304.669 112.481C303.767 111.289 302.563 110.692 301.06 110.692C299.588 110.692 298.401 111.278 297.499 112.449C296.596 113.62 296.145 115.295 296.145 117.476ZM321.185 111.24C320.734 111.165 320.245 111.127 319.719 111.127C317.764 111.127 316.437 111.96 315.739 113.625V126H312.758V108.565H315.658L315.707 110.58C316.684 109.022 318.07 108.243 319.864 108.243C320.444 108.243 320.884 108.318 321.185 108.469V111.24ZM326.744 108.565L326.825 110.499C328.103 108.995 329.827 108.243 331.997 108.243C334.436 108.243 336.095 109.178 336.976 111.047C337.556 110.209 338.308 109.532 339.232 109.017C340.167 108.501 341.268 108.243 342.535 108.243C346.359 108.243 348.304 110.268 348.368 114.318V126H345.387V114.495C345.387 113.249 345.103 112.32 344.533 111.708C343.964 111.084 343.008 110.773 341.665 110.773C340.559 110.773 339.64 111.106 338.91 111.772C338.179 112.427 337.755 113.313 337.637 114.431V126H334.64V114.576C334.64 112.041 333.399 110.773 330.917 110.773C328.962 110.773 327.625 111.605 326.905 113.271V126H323.924V108.565H326.744ZM363.644 126C363.472 125.656 363.332 125.044 363.225 124.163C361.839 125.603 360.185 126.322 358.262 126.322C356.543 126.322 355.13 125.839 354.024 124.872C352.928 123.895 352.38 122.659 352.38 121.166C352.38 119.351 353.068 117.943 354.443 116.944C355.829 115.935 357.773 115.43 360.276 115.43H363.176V114.06C363.176 113.018 362.865 112.191 362.242 111.579C361.619 110.956 360.7 110.644 359.486 110.644C358.423 110.644 357.531 110.913 356.812 111.45C356.092 111.987 355.732 112.637 355.732 113.399H352.735C352.735 112.529 353.041 111.691 353.653 110.886C354.276 110.069 355.114 109.425 356.167 108.952C357.23 108.479 358.396 108.243 359.664 108.243C361.672 108.243 363.246 108.748 364.385 109.758C365.523 110.757 366.114 112.137 366.157 113.899V121.923C366.157 123.524 366.361 124.797 366.77 125.742V126H363.644ZM358.697 123.728C359.631 123.728 360.518 123.486 361.355 123.003C362.193 122.52 362.8 121.891 363.176 121.118V117.541H360.84C357.188 117.541 355.361 118.609 355.361 120.747C355.361 121.682 355.673 122.412 356.296 122.938C356.919 123.465 357.719 123.728 358.697 123.728ZM374.875 104.344V108.565H378.129V110.87H374.875V121.682C374.875 122.38 375.02 122.906 375.31 123.261C375.6 123.604 376.094 123.776 376.792 123.776C377.136 123.776 377.608 123.712 378.21 123.583V126C377.426 126.215 376.663 126.322 375.922 126.322C374.59 126.322 373.585 125.919 372.909 125.114C372.232 124.308 371.894 123.164 371.894 121.682V110.87H368.719V108.565H371.894V104.344H374.875ZM384.865 126H381.884V108.565H384.865V126ZM381.642 103.941C381.642 103.458 381.787 103.049 382.077 102.716C382.378 102.383 382.818 102.217 383.398 102.217C383.979 102.217 384.419 102.383 384.72 102.716C385.021 103.049 385.171 103.458 385.171 103.941C385.171 104.424 385.021 104.827 384.72 105.149C384.419 105.472 383.979 105.633 383.398 105.633C382.818 105.633 382.378 105.472 382.077 105.149C381.787 104.827 381.642 104.424 381.642 103.941ZM388.861 117.122C388.861 115.414 389.194 113.877 389.86 112.513C390.537 111.149 391.471 110.096 392.664 109.355C393.867 108.614 395.236 108.243 396.772 108.243C399.146 108.243 401.064 109.065 402.525 110.708C403.997 112.352 404.732 114.538 404.732 117.267V117.476C404.732 119.173 404.405 120.699 403.75 122.052C403.105 123.395 402.176 124.442 400.962 125.194C399.759 125.946 398.373 126.322 396.805 126.322C394.441 126.322 392.524 125.5 391.052 123.857C389.591 122.213 388.861 120.038 388.861 117.331V117.122ZM391.858 117.476C391.858 119.41 392.304 120.962 393.195 122.133C394.098 123.304 395.301 123.889 396.805 123.889C398.319 123.889 399.522 123.298 400.414 122.117C401.306 120.924 401.751 119.259 401.751 117.122C401.751 115.209 401.295 113.663 400.382 112.481C399.479 111.289 398.276 110.692 396.772 110.692C395.301 110.692 394.114 111.278 393.211 112.449C392.309 113.62 391.858 115.295 391.858 117.476ZM411.291 108.565L411.387 110.757C412.719 109.081 414.459 108.243 416.608 108.243C420.292 108.243 422.151 110.322 422.183 114.479V126H419.202V114.463C419.191 113.206 418.901 112.277 418.332 111.675C417.773 111.074 416.898 110.773 415.706 110.773C414.739 110.773 413.89 111.031 413.16 111.546C412.429 112.062 411.86 112.739 411.452 113.577V126H408.471V108.565H411.291Z" fill="white"/>
<path d="M254 0H360C373.261 0 385.979 5.26784 395.355 14.6447C404.732 24.0215 410 36.7392 410 50V196H204V50C204 36.7392 209.268 24.0215 218.645 14.6447C228.021 5.26784 240.739 0 254 0V0Z" fill="#B1CCC9"/>
<path d="M352 65H266C260.477 65 256 69.4772 256 75V156C256 161.523 260.477 166 266 166H352C357.523 166 362 161.523 362 156V75C362 69.4772 357.523 65 352 65Z" fill="#0E314A"/>
<path d="M204 196H0V392H204V196Z" fill="#ED7154"/>
<path d="M102 286L204 392H0L102 286Z" fill="#FFAA1D"/>
<path d="M121 271H83C80.7909 271 79 272.791 79 275V306C79 308.209 80.7909 310 83 310H121C123.209 310 125 308.209 125 306V275C125 272.791 123.209 271 121 271Z" fill="white"/>
</svg>
