<svg width="27" height="27" viewBox="0 0 27 27" fill="none" xmlns="http://www.w3.org/2000/svg">
<path d="M3.5 7C5.433 7 7 5.433 7 3.5C7 1.567 5.433 0 3.5 0C1.567 0 0 1.567 0 3.5C0 5.433 1.567 7 3.5 7Z" fill="white"/>
<path d="M13.5 7C15.433 7 17 5.433 17 3.5C17 1.567 15.433 0 13.5 0C11.567 0 10 1.567 10 3.5C10 5.433 11.567 7 13.5 7Z" fill="white"/>
<path d="M23.5 7C25.433 7 27 5.433 27 3.5C27 1.567 25.433 0 23.5 0C21.567 0 20 1.567 20 3.5C20 5.433 21.567 7 23.5 7Z" fill="white"/>
<path d="M23.5 17C25.433 17 27 15.433 27 13.5C27 11.567 25.433 10 23.5 10C21.567 10 20 11.567 20 13.5C20 15.433 21.567 17 23.5 17Z" fill="white"/>
<path d="M23.5 27C25.433 27 27 25.433 27 23.5C27 21.567 25.433 20 23.5 20C21.567 20 20 21.567 20 23.5C20 25.433 21.567 27 23.5 27Z" fill="white"/>
<path d="M13.5 27C15.433 27 17 25.433 17 23.5C17 21.567 15.433 20 13.5 20C11.567 20 10 21.567 10 23.5C10 25.433 11.567 27 13.5 27Z" fill="white"/>
<path d="M3.5 27C5.433 27 7 25.433 7 23.5C7 21.567 5.433 20 3.5 20C1.567 20 0 21.567 0 23.5C0 25.433 1.567 27 3.5 27Z" fill="white"/>
<path d="M3.5 17C5.433 17 7 15.433 7 13.5C7 11.567 5.433 10 3.5 10C1.567 10 0 11.567 0 13.5C0 15.433 1.567 17 3.5 17Z" fill="white"/>
<path d="M13.5 17C15.433 17 17 15.433 17 13.5C17 11.567 15.433 10 13.5 10C11.567 10 10 11.567 10 13.5C10 15.433 11.567 17 13.5 17Z" fill="white"/>
</svg>
